<?xml version="1.0" encoding="UTF-8" standalone="no"?>
<svg
   xmlns:dc="http://purl.org/dc/elements/1.1/"
   xmlns:cc="http://creativecommons.org/ns#"
   xmlns:rdf="http://www.w3.org/1999/02/22-rdf-syntax-ns#"
   xmlns:svg="http://www.w3.org/2000/svg"
   xmlns="http://www.w3.org/2000/svg"
   xmlns:sodipodi="http://sodipodi.sourceforge.net/DTD/sodipodi-0.dtd"
   xmlns:inkscape="http://www.inkscape.org/namespaces/inkscape"
   width="191.9699"
   height="406.4859"
   version="1.1"
   id="svg30"
   sodipodi:docname="blue.svg"
   inkscape:version="0.92.3 (2405546, 2018-03-11)">
  <metadata
     id="metadata36">
    <rdf:RDF>
      <cc:Work
         rdf:about="">
        <dc:format>image/svg+xml</dc:format>
        <dc:type
           rdf:resource="http://purl.org/dc/dcmitype/StillImage" />
        <dc:title></dc:title>
      </cc:Work>
    </rdf:RDF>
  </metadata>
  <defs
     id="defs34" />
  <sodipodi:namedview
     pagecolor="#ffffff"
     bordercolor="#666666"
     borderopacity="1"
     objecttolerance="10"
     gridtolerance="10"
     guidetolerance="10"
     inkscape:pageopacity="0"
     inkscape:pageshadow="2"
     inkscape:window-width="1440"
     inkscape:window-height="830"
     id="namedview32"
     showgrid="false"
     inkscape:zoom="1.1272351"
     inkscape:cx="-45.933643"
     inkscape:cy="244.98297"
     inkscape:window-x="-8"
     inkscape:window-y="-1"
     inkscape:window-maximized="1"
     inkscape:current-layer="svg30" />
  <path
     d="m 68.82421,395.8574 c 2.32275,-4.96375 9.19695,-4.2845 13.23445,-7.3283 13.6363,-6.8305 26.4138,-17.52085 31.331,-32.4235 2.8158,-8.2061 2.3446,-17.6985 -1.9969,-25.2567 -4.46025,-2.6296 -4.42985,6.27095 -7.315,8.48445 -3.9729,6.43815 -12.12865,11.913 -19.7885,8.54525 -8.0902,-3.62045 -8.7495,-15.5154 -3.4162,-21.755 6.0838,-7.5525 17.727,-7.64465 25.669,-3.2034 4.5277,-2.60015 2.1603,-9.18365 3.28225,-13.5261 0.4788,-13.90325 -0.855,-27.8103 -3.32785,-41.48175 -1.0412,-3.4257 2.78825,-3.6765 2.2173,-0.0541 3.0305,17.4078 4.712,35.3096 2.25055,52.89315 -2.58875,6.2111 4.3358,10.09755 5.2174,15.70825 4.0679,14.6186 -2.9868,29.95635 -13.547,40.0121 -9.06205,9.34135 -21.0444,14.91595 -32.8833,19.85215 -0.361,-0.0523 -0.64125,-0.2565 -0.9272,-0.46645 z m 25.80675,-50.21225 c 7.1554,-3.268 10.8623,-10.9839 12.5172,-18.2894 -2.1584,-5.1376 -8.7799,-5.472 -13.6059,-5.4682 -6.3498,0.16055 -13.0872,4.42225 -13.73035,11.18625 -1.1571,5.2079 0.5453,12.59985 6.707,13.50425 2.7208,0.4921 5.53945,0.002 8.11205,-0.9329 z"
     id="path24"
     inkscape:connector-curvature="0"
     style="fill:#a44b07;stroke-width:0.94999999" />
  <path
     d="m 104.45016,266.7391 c -4.86305,-2.0881 -4.6056,-14.8979 -9.75935,-4.89155 -12.1885,9.9674 -13.1689,-10.6305 -5.8159,-16.701 6.30515,-9.177 5.5613,-19.6023 -4.9438,-25.1427 C 63.48711,199.51805 40.88281,180.8515 23.41516,157.624 10.89416,139.3137 2.5341596,117.04855 5.3442596,94.605752 c 1.31955,-38.1007 31.5552004,-70.85385 67.6609004,-80.294 23.3719,-6.5644997 49.5843,-6.0163497 70.93555,6.55785 37.61715,21.0919 52.6832,71.3811 37.21815,110.817498 -8.5899,21.46335 -21.0501,41.30695 -34.93435,59.7265 -10.7768,13.8909 -23.68445,25.89605 -36.3242,38.019 0.6023,9.4715 12.9713,14.6395 15.4907,24.14045 1.98265,9.576 -9.80495,6.3213 -13.3076,2.26575 -1.2559,3.4371 -1.0298,15.35675 -7.63325,10.9003 z M 23.54398,93.976282 c 2.71263,-10.57369 3.0229,-24.168095 9.2682,-33.347945 7.0395,-11.074815 9.18935,-12.608305 17.33617,-19.76684 7.7387,-7.20765 3.22791,-11.269185 -5.32494,-6.414685 -18.316,12.4089 -28.85758,34.265835 -30.08308,56.173785 -0.12578,6.643065 6.056725,8.58534 8.80365,3.355685 z"
     id="path26"
     inkscape:connector-curvature="0"
     style="fill:#60c3ff;stroke-width:0.94999999;fill-opacity:1" />
  <path
     d="m 50.955945,30.599312 c -6.130255,0.47215 -10.772335,5.096465 -15.14414,8.949285 -9.877435,9.1466 -16.48288,21.452235 -20.11796,34.31818 -1.4763,6.088455 -2.90795,12.359025 -2.527,18.659235 0.22819,3.30695 3.23171,6.36728 6.58958,6.21794 3.58188,-0.51471 5.829865,-3.97309 6.18678,-7.36535 2.038415,-9.4278 2.692965,-19.4427 7.394705,-28.0573 3.714215,-6.43853 8.118035,-12.44975 13.774335,-17.402385 3.066695,-3.14925 7.296285,-5.75453 8.601205,-10.18248 0.84683,-2.69078 -1.61025,-5.326365 -4.312335,-5.137125 a 7.09764,7.09764 0 0 0 -0.44517,0 z"
     id="path28"
     inkscape:connector-curvature="0"
     style="fill:#fff3ff;stroke-width:0.94999999" />
</svg>
