<?xml version="1.0" encoding="UTF-8" standalone="no"?>
<svg
   xmlns:dc="http://purl.org/dc/elements/1.1/"
   xmlns:cc="http://creativecommons.org/ns#"
   xmlns:rdf="http://www.w3.org/1999/02/22-rdf-syntax-ns#"
   xmlns:svg="http://www.w3.org/2000/svg"
   xmlns="http://www.w3.org/2000/svg"
   xmlns:sodipodi="http://sodipodi.sourceforge.net/DTD/sodipodi-0.dtd"
   xmlns:inkscape="http://www.inkscape.org/namespaces/inkscape"
   viewBox="0 0 412 523"
   version="1.1"
   id="svg46"
   sodipodi:docname="l_footprint-304373.svg"
   inkscape:version="0.92.3 (2405546, 2018-03-11)">
  <metadata
     id="metadata52">
    <rdf:RDF>
      <cc:Work
         rdf:about="">
        <dc:format>image/svg+xml</dc:format>
        <dc:type
           rdf:resource="http://purl.org/dc/dcmitype/StillImage" />
        <dc:title></dc:title>
      </cc:Work>
    </rdf:RDF>
  </metadata>
  <defs
     id="defs50" />
  <sodipodi:namedview
     pagecolor="#ffffff"
     bordercolor="#666666"
     borderopacity="1"
     objecttolerance="10"
     gridtolerance="10"
     guidetolerance="10"
     inkscape:pageopacity="0"
     inkscape:pageshadow="2"
     inkscape:window-width="1440"
     inkscape:window-height="830"
     id="namedview48"
     showgrid="false"
     inkscape:zoom="1.206501"
     inkscape:cx="206"
     inkscape:cy="261.5"
     inkscape:window-x="-8"
     inkscape:window-y="-1"
     inkscape:window-maximized="1"
     inkscape:current-layer="svg46" />
  <g
     transform="translate(0.41344767)"
     id="g44"
     style="fill:#ff7f00">
    <path
       d="m 257.87,274.39 c 79.166,-8.333 65.869,-131.13 2.083,-164.58 -42.259,-22.162 -99.311,-21.194 -137.5,-6.25 -72.437,28.345 -91.666,64.583 -102.08,135.42 -10.417,70.834 24.486,258.2 108.33,279.17 75,18.75 103.94,-17.607 95.833,-52.083 -8.333,-35.417 -49.408,-81.295 -52.083,-112.5 C 166.203,280.65 257.87,274.4 257.87,274.4 Z"
       id="path32"
       inkscape:connector-curvature="0" />
    <path
       d="m 398.94,101.5 c -21.207,30.8 -61.446,39.899 -89.876,20.324 -28.431,-19.575 -34.287,-60.412 -13.08,-91.212 21.207,-30.8 61.445,-39.898 89.876,-20.323 28.429,19.575 34.286,60.412 13.08,91.211 z"
       id="path34"
       inkscape:connector-curvature="0" />
    <path
       d="m 235.45,82.105 c -18.149,3.09 -35.288,-8.655 -38.282,-26.236 -2.995,-17.581 8.591,-44.006 26.739,-47.096 18.148,-3.092 35.288,8.655 38.282,26.236 2.994,17.581 -8.592,44.005 -26.739,47.096 z"
       id="path36"
       inkscape:connector-curvature="0" />
    <path
       d="m 176.6,69.41 c -10.276,14.576 -25.334,17.381 -40.38,6.774 -15.046,-10.607 -18.585,-40.858 -8.309,-55.435 10.276,-14.575 25.333,-17.38 40.38,-6.773 15.046,10.607 18.585,40.858 8.309,55.434 z"
       id="path38"
       inkscape:connector-curvature="0" />
    <path
       d="M 113.75,80.36 C 110.593,95.569 94.792,105.15 78.456,101.759 62.12,98.368 48.84,75.304 51.997,60.095 55.154,44.886 70.955,35.305 87.29,38.696 c 16.335,3.391 29.617,26.455 26.46,41.664 z"
       id="path40"
       inkscape:connector-curvature="0" />
    <path
       d="m 47.389,102.14 c 9.291,13.857 7.525,31.324 -3.943,39.013 -11.468,7.688 -28.296,2.688 -37.587,-11.17 -9.29,-13.857 -7.524,-31.324 3.944,-39.012 11.468,-7.688 28.296,-2.688 37.586,11.169 z"
       id="path42"
       inkscape:connector-curvature="0" />
  </g>
</svg>
