<?xml version="1.0" encoding="UTF-8" standalone="no"?>
<!-- Created with Inkscape (http://www.inkscape.org/) -->

<svg
   xmlns:dc="http://purl.org/dc/elements/1.1/"
   xmlns:cc="http://creativecommons.org/ns#"
   xmlns:rdf="http://www.w3.org/1999/02/22-rdf-syntax-ns#"
   xmlns:svg="http://www.w3.org/2000/svg"
   xmlns="http://www.w3.org/2000/svg"
   xmlns:sodipodi="http://sodipodi.sourceforge.net/DTD/sodipodi-0.dtd"
   xmlns:inkscape="http://www.inkscape.org/namespaces/inkscape"
   width="191.76958mm"
   height="406.52386mm"
   viewBox="0 0 191.76958 406.52386"
   version="1.1"
   id="svg8"
   sodipodi:docname="drawing.svg"
   inkscape:version="0.92.3 (2405546, 2018-03-11)">
  <sodipodi:namedview
     id="base"
     pagecolor="#ffffff"
     bordercolor="#666666"
     borderopacity="1.0"
     inkscape:pageopacity="0.0"
     inkscape:pageshadow="2"
     inkscape:zoom="0.49497475"
     inkscape:cx="-15.019117"
     inkscape:cy="1142.4628"
     inkscape:document-units="mm"
     inkscape:current-layer="layer1"
     showgrid="false"
     inkscape:window-width="1440"
     inkscape:window-height="830"
     inkscape:window-x="-8"
     inkscape:window-y="-1"
     inkscape:window-maximized="1"
     fit-margin-top="0"
     fit-margin-left="0"
     fit-margin-right="0"
     fit-margin-bottom="0"
     showguides="false" />
  <defs
     id="defs2" />
  <metadata
     id="metadata5">
    <rdf:RDF>
      <cc:Work
         rdf:about="">
        <dc:format>image/svg+xml</dc:format>
        <dc:type
           rdf:resource="http://purl.org/dc/dcmitype/StillImage" />
        <dc:title></dc:title>
      </cc:Work>
    </rdf:RDF>
  </metadata>
  <g
     inkscape:label="Layer 1"
     inkscape:groupmode="layer"
     id="layer1"
     transform="translate(311.524,281.89171)">
    <path
       style="fill:none;stroke:#000000;stroke-width:0.26458332px;stroke-linecap:butt;stroke-linejoin:miter;stroke-opacity:1"
       d="m 112.72092,92.004262 c 0.0891,0 0.18084,-0.02162 0.26727,0 0.0216,0.0054 -0.0157,0.05107 0,0.06682 0.0157,0.01574 0.0469,-0.0099 0.0668,0 0.0282,0.01408 0.0386,0.05273 0.0668,0.06682 0.0199,0.0099 0.0511,-0.01574 0.0668,0 0.0223,0.04454 0.0445,0.08909 0.0668,0.133633 0.0223,0 0.0511,-0.01574 0.0668,0 0.0157,0.01574 -0.0157,0.05107 0,0.06682 0.0315,0.0315 0.10214,-0.0315 0.13363,0 0.0157,0.01574 -0.0157,0.05107 0,0.06682 0.0183,0.01828 0.23103,-0.01812 0.26727,0 0.12301,0.0615 0.0106,0.138946 0.13364,0.200451 0.0199,0.0099 0.0469,-0.0099 0.0668,0 0.0282,0.01408 0.0387,0.05273 0.0668,0.06682 0.0535,0.02673 0.147,-0.02673 0.20046,0 0.0282,0.01408 0.0386,0.05273 0.0668,0.06682 0.0398,0.01992 0.10214,-0.0315 0.13364,0 0.0157,0.01574 -0.01,0.0469 0,0.06682 0.009,0.01773 0.18271,0.191582 0.20045,0.200451 0.0398,0.01992 0.0938,-0.01992 0.13363,0 0.0282,0.01408 0.0369,0.05686 0.0668,0.06682 0.0423,0.01408 0.0938,-0.01992 0.13363,0 0.0199,0.0099 -0.0157,0.05107 0,0.06682 0.0158,0.01574 0.0511,-0.01574 0.0668,0 0.0157,0.01574 -0.01,0.0469 0,0.06682 0.0141,0.02817 0.0387,0.05273 0.0668,0.06682 0.0199,0.0099 0.0446,0 0.0668,0 0.0223,0 0.0511,0.01574 0.0668,0 0.0157,-0.01574 0,-0.04454 0,-0.06682 0,-0.111363 0,-0.222726 0,-0.334086 0,-0.02228 -0.0157,-0.05107 0,-0.06682 0.0157,-0.01574 0.0511,0.01574 0.0668,0 0.0157,-0.01574 -0.0157,-0.05107 0,-0.06682 0.0157,-0.01574 0.0511,0.01574 0.0668,0 0.0157,-0.01574 -0.0157,-0.05107 0,-0.06682 0.0157,-0.01574 0.0511,0.01574 0.0668,0 0.0157,-0.01574 -0.0157,-0.05107 0,-0.06682 0.0157,-0.01574 0.0469,0.0099 0.0668,0 0.0282,-0.01408 0.0387,-0.05273 0.0668,-0.06682 0.0363,-0.01812 0.24899,0.01828 0.26727,0 0.0157,-0.01574 -0.0157,-0.05107 0,-0.06682 0.0334,-0.03341 0.16705,0.03341 0.20045,0 0.0158,-0.01574 -0.0157,-0.05107 0,-0.06682 0.0158,-0.01574 0.0511,0.01574 0.0668,0 0.0157,-0.01574 -0.0157,-0.05107 0,-0.06682 0.0157,-0.01574 0.0569,0.01992 0.0668,0 0.0199,-0.03984 0,-0.08909 0,-0.133636 0,-0.133633 0,-0.267268 0,-0.400901 0,-0.02228 0,-0.04455 0,-0.06682 0,-0.02228 -0.0157,-0.05107 0,-0.06682 0.0157,-0.01574 0.0445,0 0.0668,0"
       id="path4661"
       inkscape:connector-curvature="0" />
    <g
       id="g4709">
      <g
         id="g4701">
        <path
           inkscape:connector-curvature="0"
           id="path4697"
           d="m -244.27818,124.13799 c 2.44563,-5.22423 9.68159,-4.50993 13.93151,-7.71335 14.35408,-7.19118 27.80353,-18.442904 32.97969,-34.130953 2.9644,-8.637371 2.4677,-18.629388 -2.10245,-26.585615 -4.69494,-2.767718 -4.66214,6.60164 -7.69996,8.931544 -4.18137,6.776601 -12.76615,12.540161 -20.82899,8.994998 -8.5165,-3.811483 -9.21113,-16.332247 -3.5963,-22.901071 6.40403,-7.949399 18.66017,-8.045961 27.02022,-3.371691 4.76565,-2.736147 2.27373,-9.666382 3.45477,-14.237242 0.50362,-14.635055 -0.90043,-29.2743397 -3.50314,-43.665614 -1.09618,-3.60605 2.93446,-3.869281 2.33367,-0.05669 3.18986,18.3240188 4.96111,37.168347 2.36913,55.676501 -2.72503,6.537992 4.56359,10.629212 5.492,16.535607 4.28223,15.387947 -3.14391,31.533273 -14.26058,42.117927 -9.53816,9.83268 -22.15109,15.7009 -34.61357,20.89739 -0.38061,-0.0558 -0.67477,-0.27014 -0.976,-0.49174 z m 27.16506,-52.855111 c 7.53232,-3.440423 11.43373,-11.561191 13.17614,-19.251393 -2.27161,-5.408393 -9.24186,-5.760548 -14.32219,-5.756088 -6.68352,0.168598 -13.77599,4.654589 -14.45286,11.774499 -1.21829,5.482597 0.57366,13.26389 7.05942,14.215679 2.8644,0.518207 5.83176,0.0019 8.53949,-0.982697 z"
           style="fill:#a44b07;fill-opacity:1;stroke-width:0.26726952" />
        <path
           inkscape:connector-curvature="0"
           id="path4669"
           d="m -206.77664,-11.775445 c -5.1189,-2.198529 -4.84795,-15.682127 -10.27309,-5.14911 -12.83115,10.4916173 -13.86217,-11.190687 -6.12185,-17.580547 6.63694,-9.658982 5.85309,-20.633148 -5.20426,-26.465764 -21.52067,-21.564285 -45.31433,-41.212624 -63.70121,-65.662704 -13.18062,-19.27411 -21.97964,-42.71159 -19.02158,-66.33469 1.38814,-40.10615 33.21562,-74.58462 71.22196,-84.52004 24.60181,-6.91109 52.19368,-6.33321 74.66835,6.90272 39.59763,22.2019 55.45663,75.1374 39.17753,116.64964 -9.04197,22.59371 -22.15791,43.48162 -36.77311,62.870579 -11.34403,14.621654 -24.93153,27.258341 -38.23572,40.020294 0.63374,9.970081 13.65406,15.409846 16.30574,25.410769 2.08689,10.07999 -10.32142,6.653734 -14.00783,2.385066 -1.32248,3.617612 -1.08396,16.1650133 -8.03493,11.473787 z m -84.53875,-180.836995 c 4.11012,-10.34629 4.27724,-22.59719 10.85172,-32.26018 6.31178,-11.3444 16.80393,-19.77382 26.8635,-27.08113 6.9943,-6.63817 -6.93953,-9.45112 -15.94333,-4.34135 -19.27835,13.0634 -31.23737,35.83514 -32.52727,58.8965 -0.76259,5.85117 6.86664,8.43818 10.75538,4.78616 z"
           style="fill:#74be21;fill-opacity:1;stroke-width:0.53453904"
           sodipodi:nodetypes="cccccccccccccccccccc" />
      </g>
    </g>
    <path
       style="fill:#ffffff;fill-opacity:1;stroke-width:2.85714293"
       d="m 76.867773,-339.94809 c -11.735181,-5.10779 -13.303034,-12.83149 -8.337608,-41.07346 15.295888,-86.99875 58.055235,-154.41296 126.552265,-199.52178 30.78024,-20.27037 40.60449,-23.60403 50.484,-17.13072 8.5579,5.60735 12.09381,16.88764 8.02639,25.60583 -1.5955,3.41983 -11.27866,10.54204 -21.51812,15.82714 -63.39731,32.7225 -109.49692,100.18558 -123.65804,180.96362 -3.67591,20.96816 -6.13622,27.92532 -11.669523,32.99854 -8.113626,7.439 -8.137,7.44174 -19.879364,2.33083 z"
       id="path4671"
       inkscape:connector-curvature="0"
       transform="scale(0.26458333)" />
    <path
       style="fill:#ffffff;fill-opacity:1;stroke-width:2.85714293"
       d="m 76.867773,-339.94809 c -11.29013,-4.91408 -13.632086,-13.85426 -9.635212,-36.78144 11.586173,-66.46151 39.165139,-123.3719 79.738189,-164.5432 27.90572,-28.31719 75.29254,-60.2919 89.35317,-60.2919 9.25118,0 19.92225,13.15287 18.90777,23.30523 -0.78512,7.85718 -3.88644,10.72808 -25.93623,24.00929 -29.09795,17.52651 -54.23331,37.72668 -52.67811,42.33505 0.59536,1.76416 -3.40101,4.21232 -6.74036,7.99184 -115.919581,131.19952 -53.65773,80.48523 -62.68105,135.92504 -2.68149,16.47526 -4.85717,21.87863 -10.641483,26.42858 -8.483429,6.67306 -8.144777,6.64517 -19.686684,1.62151 z"
       id="path4675"
       inkscape:connector-curvature="0"
       sodipodi:nodetypes="sssscscsscs"
       transform="scale(0.26458333)" />
    <path
       style="fill:none;stroke:#000000;stroke-width:0.26458332px;stroke-linecap:butt;stroke-linejoin:miter;stroke-opacity:1"
       d="m 176.0638,-3.6782271 c 0.26727,0 0.53454,0 0.80181,0 0.0162,0 0.1983,-0.00214 0.20045,0 0.0157,0.015748 -0.0157,0.051068 0,0.066817 0.0157,0.015748 0.0445,0 0.0668,0 0.11136,0 0.22272,0 0.33408,0 0.0668,0 0.13364,0 0.20046,0 0.0223,0 0.0511,0.015748 0.0668,0 0,-0.1781797 -0.0223,0.022273 0.0668,-0.066817 0.0157,-0.015748 -0.0157,-0.051069 0,-0.066818 0.0315,-0.031498 0.10214,0.031498 0.13364,0 0.0157,-0.015748 -0.0157,-0.051068 0,-0.066817 0.0315,-0.031498 0.10213,0.031498 0.13363,0 0.0157,-0.015748 -0.0157,-0.051068 0,-0.066817 0.0157,-0.015748 0.0511,0.015748 0.0668,0 0.0157,-0.015748 -0.0157,-0.051068 0,-0.066817 0.0315,-0.031498 0.10213,0.031498 0.13363,0 0.0157,-0.015748 -0.0157,-0.051068 0,-0.066817 0.0183,-0.018283 0.23102,0.018124 0.26727,0 0.0282,-0.014086 0.0386,-0.052731 0.0668,-0.066817 0.0398,-0.01992 0.10214,0.031498 0.13364,0 0.0157,-0.015748 -0.0157,-0.051069 0,-0.066817 0.0315,-0.031498 0.10213,0.031498 0.13363,0 0.0157,-0.015748 -0.0157,-0.051069 0,-0.066817 0.0157,-0.015748 0.0445,0 0.0668,0 0.0223,0 0.0445,0 0.0668,0"
       id="path4691"
       inkscape:connector-curvature="0" />
    <path
       style="fill:none;stroke:#000000;stroke-width:0.26458332px;stroke-linecap:butt;stroke-linejoin:miter;stroke-opacity:1"
       d="m 136.32437,134.84425 c 0.396,0.0632 0.78898,0.0568 1.1858,0.0568 0.0445,0 0.0891,0 0.13363,0 0.0446,0 0.10214,-0.0315 0.13364,0 0.0315,0.0315 -0.0315,0.10214 0,0.13364 0.006,0.006 0.60517,0 0.66817,0 0.0446,0 0.0891,0 0.13364,0 0.0445,0 0.10213,0.0315 0.13363,0 0.0315,-0.0315 -0.0315,-0.10214 0,-0.13364 0.0322,-0.0322 0.50239,0.0322 0.53454,0 0.0315,-0.0315 -0.0315,-0.10213 0,-0.13363 0.0315,-0.0315 0.0891,0 0.13364,0 0.0445,0 0.0891,0 0.13363,0 0.0445,0 0.0891,0 0.13364,0 0.0445,0 0.10213,0.0315 0.13363,0 0.0315,-0.0315 -0.0398,-0.11372 0,-0.13364 0.11953,-0.0598 0.26727,0 0.40091,0 0.0445,0 0.10213,0.0315 0.13363,0 0.0315,-0.0315 0.0441,-0.14015 0,-0.13363 -0.4532,0.067 -0.8893,0.22064 -1.33395,0.33096"
       id="path4693"
       inkscape:connector-curvature="0" />
    <path
       style="fill:#fffffa;fill-opacity:1;stroke-width:1.42857146"
       d="M 51.206385,341.58403 C 37.813885,336.65141 35.002281,329.72045 37.336122,307.39206 45.61873,228.15043 85.718648,153.8828 145.2704,107.49081 c 20.01467,-15.591821 34.0693,-20.454734 55.92854,-19.351317 26.97728,1.361767 31.88613,14.230827 11.08912,29.071267 -12.81203,9.14247 -39.20347,30.85013 -50.75559,41.74782 -13.75696,12.97762 -27.94884,30.11984 -38.77445,46.83527 -17.49918,27.01983 -22.24351,38.94767 -33.221736,83.52364 -9.435802,38.3131 -12.894992,48.15852 -17.814316,50.7024 -6.16717,3.18916 -14.399409,3.8168 -20.515583,1.56414 z"
       id="path4711"
       inkscape:connector-curvature="0"
       transform="matrix(0.26458333,0,0,0.26458333,-311.524,-281.89171)" />
  </g>
</svg>
