<svg xmlns="http://www.w3.org/2000/svg" width="191.9699" height="406.4859">
  <path fill="#a44b07" d="M67.3947 405.995c2.445-5.225 9.681-4.51 13.931-7.714 14.354-7.19 27.804-18.443 32.98-34.13 2.964-8.638 2.468-18.63-2.102-26.586-4.695-2.768-4.663 6.601-7.7 8.931-4.182 6.777-12.767 12.54-20.83 8.995-8.516-3.811-9.21-16.332-3.596-22.9 6.404-7.95 18.66-8.047 27.02-3.372 4.766-2.737 2.274-9.667 3.455-14.238.504-14.635-.9-29.274-3.503-43.665-1.096-3.606 2.935-3.87 2.334-.057 3.19 18.324 4.96 37.168 2.369 55.677-2.725 6.538 4.564 10.629 5.492 16.535 4.282 15.388-3.144 31.533-14.26 42.118-9.539 9.833-22.152 15.701-34.614 20.897-.38-.055-.675-.27-.976-.491zm27.165-52.855c7.532-3.44 11.434-11.562 13.176-19.252-2.272-5.408-9.242-5.76-14.322-5.756-6.684.169-13.776 4.655-14.453 11.775-1.218 5.482.574 13.263 7.06 14.215 2.864.518 5.831.002 8.539-.982z"/>
  <path d="M104.8957 270.081c-5.119-2.198-4.848-15.682-10.273-5.149-12.83 10.492-13.862-11.19-6.122-17.58 6.637-9.66 5.854-20.634-5.204-26.466-21.52-21.564-45.314-41.213-63.701-65.663-13.18-19.274-21.98-42.711-19.022-66.335 1.389-40.106 33.216-74.583 71.222-84.52 24.602-6.91 52.194-6.333 74.669 6.903 39.597 22.202 55.456 75.138 39.177 116.65-9.042 22.593-22.158 43.481-36.773 62.87-11.344 14.622-24.931 27.259-38.236 40.02.634 9.97 13.654 15.41 16.306 25.411 2.087 10.08-10.321 6.654-14.008 2.385-1.322 3.618-1.084 16.165-8.035 11.474zM19.7313 88.2254c2.8554-11.1302 3.182-25.4401 9.756-35.1031 7.41-11.6577 9.673-13.2719 18.2486-20.8072 8.146-7.587 3.3978-11.8623-5.6052-6.7523-19.28 13.062-30.3764 36.0693-31.6664 59.1303-.1324 6.9927 6.3755 9.0372 9.267 3.5323z" fill="#74be21"/>
  <path d="M48.586 21.5128c-6.4529.497-11.3393 5.3647-15.9412 9.4203-10.3973 9.628-17.3504 22.5813-21.1768 36.1244-1.554 6.4089-3.061 13.0095-2.66 19.6413.2402 3.481 3.4018 6.7024 6.9364 6.5452 3.7704-.5418 6.1367-4.1822 6.5124-7.753 2.1457-9.924 2.8347-20.466 7.7839-29.534 3.9097-6.7774 8.5453-13.105 14.4993-18.3183 3.2281-3.315 7.6803-6.0574 9.0539-10.7184.8914-2.8324-1.695-5.6067-4.5393-5.4075a7.4712 7.4712 0 0 0-.4686 0z" fill="#fff3ff"/>
</svg>
