<?xml version="1.0" encoding="UTF-8" standalone="no"?>
<svg
   xmlns:dc="http://purl.org/dc/elements/1.1/"
   xmlns:cc="http://creativecommons.org/ns#"
   xmlns:rdf="http://www.w3.org/1999/02/22-rdf-syntax-ns#"
   xmlns:svg="http://www.w3.org/2000/svg"
   xmlns="http://www.w3.org/2000/svg"
   xmlns:sodipodi="http://sodipodi.sourceforge.net/DTD/sodipodi-0.dtd"
   xmlns:inkscape="http://www.inkscape.org/namespaces/inkscape"
   viewBox="0 0 191.96987 406.48591"
   version="1.1"
   id="svg14"
   sodipodi:docname="greenballon.svg"
   inkscape:version="0.92.3 (2405546, 2018-03-11)"
   width="191.96988"
   height="406.4859">
  <metadata
     id="metadata20">
    <rdf:RDF>
      <cc:Work
         rdf:about="">
        <dc:format>image/svg+xml</dc:format>
        <dc:type
           rdf:resource="http://purl.org/dc/dcmitype/StillImage" />
        <dc:title></dc:title>
      </cc:Work>
    </rdf:RDF>
  </metadata>
  <defs
     id="defs18" />
  <sodipodi:namedview
     pagecolor="#ffffff"
     bordercolor="#666666"
     borderopacity="1"
     objecttolerance="10"
     gridtolerance="10"
     guidetolerance="10"
     inkscape:pageopacity="0"
     inkscape:pageshadow="2"
     inkscape:window-width="1440"
     inkscape:window-height="830"
     id="namedview16"
     showgrid="false"
     inkscape:zoom="0.4104978"
     inkscape:cx="882.68414"
     inkscape:cy="251.71438"
     inkscape:window-x="-8"
     inkscape:window-y="-1"
     inkscape:window-maximized="1"
     inkscape:current-layer="svg14"
     fit-margin-top="0"
     fit-margin-left="0"
     fit-margin-right="0"
     fit-margin-bottom="0" />
  <g
     id="g832"
     transform="translate(0.14874442,-0.03509151)">
    <path
       id="path4"
       d="m 67.246,406.03 c 2.445,-5.225 9.681,-4.51 13.931,-7.714 14.354,-7.19 27.804,-18.443 32.98,-34.13 2.964,-8.638 2.468,-18.63 -2.102,-26.586 -4.695,-2.768 -4.663,6.601 -7.7,8.931 -4.182,6.777 -12.767,12.54 -20.83,8.995 -8.516,-3.811 -9.21,-16.332 -3.596,-22.9 6.404,-7.95 18.66,-8.047 27.02,-3.372 4.766,-2.737 2.274,-9.667 3.455,-14.238 0.504,-14.635 -0.9,-29.274 -3.503,-43.665 -1.096,-3.606 2.935,-3.87 2.334,-0.057 3.19,18.324 4.96,37.168 2.369,55.677 -2.725,6.538 4.564,10.629 5.492,16.535 4.282,15.388 -3.144,31.533 -14.26,42.118 -9.539,9.833 -22.152,15.701 -34.614,20.897 -0.38,-0.055 -0.675,-0.27 -0.976,-0.491 z m 27.165,-52.855 c 7.532,-3.44 11.434,-11.562 13.176,-19.252 -2.272,-5.408 -9.242,-5.76 -14.322,-5.756 -6.684,0.169 -13.776,4.655 -14.453,11.775 -1.218,5.482 0.574,13.263 7.06,14.215 2.864,0.518 5.831,0.002 8.539,-0.982 z"
       style="fill:#a44b07"
       inkscape:connector-curvature="0" />
    <g
       id="g835">
      <path
         style="fill:#74be21"
         d="m 104.747,270.116 c -5.119,-2.198 -4.848,-15.682 -10.273,-5.149 -12.83,10.492 -13.862,-11.19 -6.122,-17.58 6.637,-9.66 5.854,-20.634 -5.204,-26.466 C 61.628,199.357 37.834,179.708 19.447,155.258 6.267,135.984 -2.533,112.547 0.425,88.923 1.814,48.817 33.641,14.34 71.647,4.403 c 24.602,-6.91 52.194,-6.333 74.669,6.903 39.597,22.202 55.456,75.138 39.177,116.65 -9.042,22.593 -22.158,43.481 -36.773,62.87 -11.344,14.622 -24.931,27.259 -38.236,40.02 0.634,9.97 13.654,15.41 16.306,25.411 2.087,10.08 -10.321,6.654 -14.008,2.385 -1.322,3.618 -1.084,16.165 -8.035,11.474 z M 19.5826,88.2606 C 22.438,77.1304 24.487,62.6052 31.061,52.9422 38.4709,41.2845 40.572,40.3043 50.632,32.9973 59.2728,23.8499 50.985,20.488 41.982,25.598 22.702,38.66 11.6056,61.6673 10.3156,84.7283 c -0.1324,6.9927 6.3755,9.0372 9.267,3.5323 z"
         id="path6"
         inkscape:connector-curvature="0" />
    </g>
    <path
       id="path12"
       d="m 49.3929,23.3581 c -7.1047,0.7706 -12.6175,6.131 -17.4895,10.9039 -12.8718,13.218 -20.0886,31.3043 -21.39,49.5815 -0.2889,3.129 0.965,7.4478 4.7592,7.485 2.906,-0.2036 4.3041,-3.0253 4.6743,-5.585 3.2178,-12.1291 5.168,-25.0633 12.7588,-35.4476 4.2877,-6.9043 10.5835,-12.1528 17.0182,-16.9575 2.3098,-1.9693 5.3893,-5.294 3.7836,-8.5368 -0.9357,-1.2233 -2.6913,-1.426 -4.1146,-1.4435 z"
       inkscape:connector-curvature="0"
       style="fill:#feffff" />
  </g>
</svg>
