<?xml version="1.0" encoding="UTF-8" standalone="no"?>
<svg
   xmlns:dc="http://purl.org/dc/elements/1.1/"
   xmlns:cc="http://creativecommons.org/ns#"
   xmlns:rdf="http://www.w3.org/1999/02/22-rdf-syntax-ns#"
   xmlns:svg="http://www.w3.org/2000/svg"
   xmlns="http://www.w3.org/2000/svg"
   xmlns:sodipodi="http://sodipodi.sourceforge.net/DTD/sodipodi-0.dtd"
   xmlns:inkscape="http://www.inkscape.org/namespaces/inkscape"
   width="191.9699"
   height="406.4859"
   version="1.1"
   id="svg8"
   sodipodi:docname="greenballon (2).svg"
   inkscape:version="0.92.3 (2405546, 2018-03-11)">
  <metadata
     id="metadata14">
    <rdf:RDF>
      <cc:Work
         rdf:about="">
        <dc:format>image/svg+xml</dc:format>
        <dc:type
           rdf:resource="http://purl.org/dc/dcmitype/StillImage" />
      </cc:Work>
    </rdf:RDF>
  </metadata>
  <defs
     id="defs12" />
  <sodipodi:namedview
     pagecolor="#ffffff"
     bordercolor="#666666"
     borderopacity="1"
     objecttolerance="10"
     gridtolerance="10"
     guidetolerance="10"
     inkscape:pageopacity="0"
     inkscape:pageshadow="2"
     inkscape:window-width="1440"
     inkscape:window-height="830"
     id="namedview10"
     showgrid="false"
     inkscape:zoom="0.82107251"
     inkscape:cx="-192.0708"
     inkscape:cy="259.03895"
     inkscape:window-x="-8"
     inkscape:window-y="-1"
     inkscape:window-maximized="1"
     inkscape:current-layer="layer3" />
  <g
     inkscape:groupmode="layer"
     id="layer3"
     inkscape:label="Layer 1"
     style="display:inline">
    <g
       id="g4672">
      <path
         id="path2"
         fill="#a44b07"
         d="M67.3947 405.995c2.445-5.225 9.681-4.51 13.931-7.714 14.354-7.19 27.804-18.443 32.98-34.13 2.964-8.638 2.468-18.63-2.102-26.586-4.695-2.768-4.663 6.601-7.7 8.931-4.182 6.777-12.767 12.54-20.83 8.995-8.516-3.811-9.21-16.332-3.596-22.9 6.404-7.95 18.66-8.047 27.02-3.372 4.766-2.737 2.274-9.667 3.455-14.238.504-14.635-.9-29.274-3.503-43.665-1.096-3.606 2.935-3.87 2.334-.057 3.19 18.324 4.96 37.168 2.369 55.677-2.725 6.538 4.564 10.629 5.492 16.535 4.282 15.388-3.144 31.533-14.26 42.118-9.539 9.833-22.152 15.701-34.614 20.897-.38-.055-.675-.27-.976-.491zm27.165-52.855c7.532-3.44 11.434-11.562 13.176-19.252-2.272-5.408-9.242-5.76-14.322-5.756-6.684.169-13.776 4.655-14.453 11.775-1.218 5.482.574 13.263 7.06 14.215 2.864.518 5.831.002 8.539-.982z"
         style="" />
      <g
         id="g823">
        <path
           inkscape:connector-curvature="0"
           d="m 104.8957,270.081 c -5.119,-2.198 -4.848,-15.682 -10.273,-5.149 -12.83,10.492 -13.862,-11.19 -6.122,-17.58 6.637,-9.66 5.854,-20.634 -5.204,-26.466 -21.52,-21.564 -45.314,-41.213 -63.701,-65.663 -13.18,-19.274 -21.98,-42.711 -19.022,-66.335 1.389,-40.106 33.216,-74.583 71.222,-84.52 24.602,-6.91 52.194,-6.333 74.669,6.903 39.597,22.202 55.456,75.138 39.177,116.65 -9.042,22.593 -22.158,43.481 -36.773,62.87 -11.344,14.622 -24.931,27.259 -38.236,40.02 0.634,9.97 13.654,15.41 16.306,25.411 2.087,10.08 -10.321,6.654 -14.008,2.385 -1.322,3.618 -1.084,16.165 -8.035,11.474 z M 19.7313,88.2254 c 2.8554,-11.1302 3.182002,-25.4401 9.756002,-35.1031 7.41,-11.6577 9.672939,-13.27186 18.2486,-20.80722 8.14602,-7.586941 3.397798,-11.86228 -5.605202,-6.75228 -19.28,13.062 -30.3764,36.0693 -31.6664,59.1303 -0.1324,6.9927 6.3755,9.0372 9.267,3.5323 z"
           style="fill:#74be21"
           id="path4" />
      </g>
      <path
         inkscape:connector-curvature="0"
         id="path4665"
         d="M 48.58601,21.512812 C 42.133103,22.009875 37.246661,26.877488 32.6448,30.933064 22.247523,40.561009 15.294422,53.514402 11.468018,67.057521 9.9140539,73.46637 8.4070404,80.06703 8.8079828,86.698847 c 0.2402478,3.480895 3.4018242,6.702395 6.9364302,6.545125 3.770394,-0.541767 6.136732,-4.182186 6.512419,-7.752936 2.145679,-9.924011 2.834628,-20.465985 7.78386,-29.533947 3.909717,-6.777468 8.545308,-13.105135 14.499336,-18.31838 3.228079,-3.31496 7.680253,-6.057385 9.053841,-10.718407 0.891419,-2.832371 -1.695039,-5.606701 -4.539246,-5.40749 -0.156159,-0.005 -0.312451,-0.0048 -0.468613,0 z"
         style="fill:#fff3ff;fill-opacity:1;stroke-width:0.30447981" />
    </g>
  </g>
</svg>
